<svg width="86" height="40" viewBox="0 0 86 40" fill="none" xmlns="http://www.w3.org/2000/svg">
<g clip-path="url(#clip0_1064_8692)">
<path d="M79.4033 15.485L64.1092 13.635C63.8617 13.635 63.7392 13.5117 63.6158 13.3883L54.8584 3.15082C54.1303 2.29266 53.2226 1.60485 52.1995 1.136C51.1765 0.667147 50.0629 0.428696 48.9375 0.437491H15.8825C14.6865 0.442167 13.5078 0.722832 12.4381 1.25763C11.3683 1.79243 10.4364 2.56693 9.71501 3.52082L1.94418 13.8817C1.21447 14.8375 0.82392 16.0092 0.834182 17.2117V26.8333C0.834182 30.0408 3.42501 32.5075 6.50835 32.5075H10.2083C11.3183 36.33 14.8958 39.1667 19.0892 39.1667C23.2825 39.1667 26.86 36.33 27.97 32.5067H59.6675C60.7792 36.33 64.3559 39.1667 68.5492 39.1667C72.7425 39.1667 76.32 36.33 77.43 32.5067H81.9934C84.09 32.5067 85.6942 30.78 85.6942 28.8067V23.0083C85.94 19.185 83.1033 15.9783 79.4033 15.485ZM9.83835 29.7933C9.83835 30.41 9.83835 30.9033 9.96252 31.52H6.50835C3.91835 31.52 1.94501 29.5467 1.82168 26.9567H10.3325C9.96252 27.82 9.83835 28.8067 9.83835 29.7933ZM27.3534 31.52C27.3534 31.6433 27.23 31.89 27.23 32.0133C27.23 32.1367 27.1059 32.3833 27.1059 32.5075C26.5588 34.1663 25.5 35.609 24.0816 36.6283C22.6633 37.6476 20.9583 38.1912 19.2117 38.1808C17.4651 38.1909 15.7602 37.6472 14.342 36.6277C12.9238 35.6082 11.8652 34.1655 11.3183 32.5067C11.3183 32.3833 11.1942 32.1367 11.1942 32.0133C11.1942 31.89 11.0708 31.6433 11.0708 31.52C10.9475 30.9033 10.9475 30.41 10.9475 29.7933C10.9475 28.8067 11.07 27.82 11.4408 26.9567C11.4408 26.8325 11.5642 26.5867 11.5642 26.4625C11.6883 26.3392 11.6883 26.0925 11.8108 25.9692C13.1675 23.2558 16.0042 21.4058 19.335 21.4058C22.5417 21.4058 25.3783 23.2558 26.8592 25.9692C26.9825 26.0925 26.9825 26.3392 27.1059 26.4625C27.2284 26.5867 27.2292 26.8325 27.2292 26.9567C27.5992 27.82 27.7225 28.8067 27.7225 29.7933C27.4758 30.41 27.4758 30.9033 27.3525 31.52H27.3534ZM59.4225 29.7933C59.4225 30.41 59.4225 30.9033 59.545 31.52H28.34C28.4633 30.9033 28.4633 30.41 28.4633 29.7933C28.4633 28.8067 28.34 27.9433 28.0933 26.9567H59.9159C59.5459 27.82 59.4225 28.8067 59.4225 29.7933ZM76.9367 31.52C76.9367 31.6433 76.8134 31.89 76.8134 32.0133C76.8134 32.1367 76.69 32.3833 76.69 32.5075C76.143 34.1663 75.0842 35.609 73.6658 36.6283C72.2474 37.6476 70.5425 38.1912 68.7959 38.1808C67.0492 38.1912 65.3442 37.6476 63.926 36.628C62.5077 35.6085 61.4492 34.1656 60.9025 32.5067C60.9025 32.3833 60.7792 32.1367 60.7792 32.0133C60.7792 31.89 60.655 31.6433 60.655 31.52C60.5325 30.9033 60.5325 30.41 60.5325 29.7933C60.5325 28.8067 60.655 27.82 61.025 26.9567C61.025 26.8325 61.1492 26.5867 61.1492 26.4625C61.2725 26.3392 61.2717 26.0925 61.395 25.9692C62.7517 23.2558 65.5892 21.4058 68.92 21.4058C72.1259 21.4058 74.9634 23.2558 76.4434 25.9692C76.5667 26.0925 76.5667 26.3392 76.69 26.4625C76.8125 26.5867 76.8134 26.8325 76.8134 26.9567C77.1834 27.82 77.3067 28.8067 77.3067 29.7933C77.06 30.41 77.06 30.9033 76.9367 31.52ZM84.9542 28.6833C84.9542 30.1633 83.7209 31.3958 82.2409 31.3958H77.9242C78.0467 30.7792 78.0467 30.2858 78.0467 29.6692C78.0467 28.6833 77.9234 27.8192 77.6759 26.8325H85.0775V28.6825L84.9542 28.6833ZM84.9542 25.97H77.1834C75.7034 22.6392 72.4967 20.42 68.6725 20.42C64.8492 20.42 61.6417 22.7625 60.1625 25.97H27.6C26.1192 22.6392 22.9125 20.42 19.0892 20.42C15.2658 20.42 12.0592 22.7625 10.5783 25.97H1.69835V22.7625H4.41168C4.65752 22.7625 4.90502 22.5167 4.90502 22.2692C4.90502 22.0217 4.65835 21.7758 4.41168 21.7758H1.69835V18.6925H4.41168C4.65752 18.6925 4.90502 18.4458 4.90502 18.1983C4.90502 17.9517 4.65835 17.705 4.41168 17.705H1.69835V17.0883C1.69835 16.1017 2.06835 15.1142 2.56168 14.375L10.3325 4.01416C11.5658 2.28749 13.5392 1.30082 15.7592 1.30082H48.815C50.7884 1.30082 52.6383 2.16499 53.995 3.64416L62.7509 13.8817C62.9984 14.2517 63.4909 14.4983 63.8609 14.4983L79.1559 16.3483C81.2525 16.595 82.98 17.8283 83.9667 19.555H79.65C79.4025 19.555 79.1559 19.8017 79.1559 20.0492C79.1559 20.2958 79.4025 20.5425 79.6492 20.5425H84.4592C84.7067 21.2825 84.8292 22.0225 84.8292 22.7625V25.97H84.9542Z" fill="#0F0F0F" stroke="#0F0F0F" stroke-width="0.3"/>
<path d="M72.8655 26.461C72.7422 26.3368 72.6197 26.091 72.4955 25.9668C71.5088 24.981 70.153 24.3635 68.6722 24.3635C67.9608 24.3661 67.2568 24.5091 66.6008 24.7842C65.9447 25.0594 65.3494 25.4612 64.8488 25.9668C64.7255 26.091 64.6022 26.3368 64.4788 26.461C64.3563 26.5843 64.2322 26.831 64.1088 26.9543C63.6155 27.8185 63.2455 28.681 63.2455 29.791C63.2455 30.4076 63.3688 31.0243 63.6155 31.5176C63.6155 31.6418 63.7388 31.8876 63.7388 32.0118C63.8613 32.1351 63.8613 32.3818 63.9855 32.5051C64.9722 34.1085 66.5755 35.0951 68.5488 35.0951C70.5222 35.0951 72.2488 33.9851 73.1122 32.5051C73.2355 32.3818 73.2355 32.1351 73.3597 32.0118C73.483 31.8876 73.4822 31.6418 73.4822 31.5176C73.7297 31.0243 73.8522 30.4076 73.8522 29.791C73.8522 28.8043 73.6055 27.8185 72.9897 26.9543C73.1122 26.831 72.9897 26.7076 72.8655 26.461ZM72.7422 31.5176C72.6197 31.6418 72.6197 31.8876 72.4955 32.0118C72.3722 32.1351 72.2488 32.3818 72.1255 32.5051C71.7234 33.0412 71.202 33.4764 70.6026 33.7761C70.0033 34.0758 69.3423 34.2318 68.6722 34.2318C67.1922 34.2318 66.0822 33.6151 65.2188 32.5051C65.0955 32.3818 64.9722 32.1351 64.8488 32.0118C64.7263 31.8876 64.6022 31.6418 64.6022 31.5176C64.3555 31.0243 64.2313 30.4076 64.2313 29.791C64.2313 28.681 64.6022 27.8185 65.2188 26.9543C65.3422 26.831 65.4655 26.5843 65.7122 26.461C65.9588 26.3368 66.0822 26.091 66.3288 25.9668C66.9982 25.5613 67.7663 25.348 68.5488 25.3501C69.3315 25.3477 70.0996 25.5611 70.7688 25.9668C71.0155 26.091 71.263 26.2135 71.3855 26.461C71.5088 26.5843 71.7555 26.7068 71.8788 26.9543C72.4955 27.6943 72.8655 28.681 72.8655 29.791C73.1122 30.4076 72.9897 30.901 72.7422 31.5176ZM23.4055 26.461C23.2813 26.3368 23.1588 26.091 23.0355 25.9668C22.0488 24.981 20.6922 24.3635 19.2113 24.3635C18.4999 24.3661 17.796 24.5091 17.1399 24.7842C16.4839 25.0594 15.8885 25.4612 15.388 25.9668C15.2647 26.091 15.1413 26.3368 15.018 26.461C14.8947 26.5843 14.7713 26.831 14.648 26.9543C14.1547 27.8185 13.7847 28.681 13.7847 29.791C13.7847 30.4076 13.908 31.0243 14.1547 31.5176C14.1547 31.6418 14.278 31.8876 14.278 32.0118C14.4013 32.1351 14.4013 32.3818 14.5247 32.5051C15.5113 34.1085 17.1147 35.0951 19.088 35.0951C21.0613 35.0951 22.788 33.9851 23.6513 32.5051C23.7755 32.3818 23.7755 32.1351 23.898 32.0118C24.0213 31.8876 24.0213 31.6418 24.0213 31.5176C24.268 31.0243 24.3922 30.4076 24.3922 29.791C24.3922 28.8043 24.1455 27.8185 23.5288 26.9543C23.5288 26.831 23.5288 26.7076 23.4055 26.461ZM23.1588 31.5176C23.0355 31.6418 23.0355 31.8876 22.9122 32.0118C22.7897 32.1351 22.6655 32.3818 22.5422 32.5051C22.1401 33.0412 21.6187 33.4764 21.0193 33.7761C20.4199 34.0758 19.759 34.2318 19.0888 34.2318C17.6088 34.2318 16.4988 33.6151 15.6355 32.5051C15.5122 32.3818 15.3888 32.1351 15.2655 32.0118C15.1413 31.8876 15.0188 31.6418 15.0188 31.5176C14.7722 31.0243 14.6488 30.4076 14.6488 29.791C14.6488 28.681 15.0188 27.8185 15.6355 26.9543C15.7588 26.831 15.8822 26.5843 16.1288 26.461C16.3763 26.3368 16.4988 26.091 16.7455 25.9668C17.415 25.561 18.1834 25.3476 18.9663 25.3501C19.8297 25.3501 20.5688 25.5968 21.1863 25.9668C21.433 26.091 21.6797 26.2135 21.803 26.461C21.9263 26.5843 22.173 26.7068 22.2963 26.9543C22.913 27.6943 23.283 28.681 23.283 29.791C23.5297 30.4076 23.4055 30.901 23.1588 31.5176ZM44.0038 15.731H41.5372C41.2905 15.731 41.043 15.9768 41.043 16.2243C41.043 16.471 41.2897 16.7176 41.5372 16.7176H44.0038C44.2505 16.7176 44.4972 16.471 44.4972 16.2243C44.4972 15.9768 44.2513 15.7301 44.0038 15.7301V15.731ZM26.8588 15.731H24.3922C24.1463 15.731 23.8988 15.9768 23.8988 16.2243C23.8988 16.471 24.1455 16.7176 24.3922 16.7176H26.8588C27.1055 16.7176 27.353 16.471 27.353 16.2243C27.353 15.9768 27.1063 15.7301 26.8588 15.7301V15.731ZM53.7472 5.12263C52.6363 3.64263 50.7863 2.7793 48.9363 2.7793H18.7172C16.7438 2.7793 15.0172 3.64346 13.7838 5.24596L8.60384 12.1543C8.23384 12.6476 8.23384 13.1401 8.4805 13.6335C8.72634 14.1276 9.22051 14.3743 9.71384 14.3743H58.1872C58.8038 14.3743 59.2972 14.0043 59.5438 13.5101C59.7913 13.0168 59.6672 12.4001 59.4205 12.0301L53.7472 5.12263ZM9.96051 13.5101C9.71384 13.5101 9.59051 13.3868 9.46717 13.2635C9.34301 13.141 9.34301 12.8935 9.46717 12.7701L14.6472 5.86263C15.633 4.50596 17.1138 3.76596 18.7172 3.76596H22.4172L19.9505 13.5101H9.96134H9.96051ZM21.0605 13.5101L23.5288 3.7668H37.8372L39.0705 13.511H21.0622L21.0605 13.5101ZM39.933 13.5101L38.6988 3.7668H48.9363C49.3063 3.7668 49.6763 3.7668 49.923 3.89013L53.623 13.511H39.9338L39.933 13.5101ZM58.6805 13.2635C58.5572 13.3876 58.4338 13.5101 58.1872 13.5101H54.7338L51.1572 4.26013C51.8746 4.6123 52.5061 5.1175 53.0072 5.74013L58.558 12.7701C58.6813 12.8935 58.8038 13.0168 58.6805 13.2635Z" fill="#0F0F0F" stroke="#0F0F0F" stroke-width="0.3"/>
</g>
<defs>
<clipPath id="clip0_1064_8692">
<rect width="85.8333" height="40" fill="white"/>
</clipPath>
</defs>
</svg>
