<svg width="112" height="40" viewBox="0 0 112 40" fill="none" xmlns="http://www.w3.org/2000/svg">
<g clip-path="url(#clip0_1064_8633)">
<path d="M110.406 18.5662C108.992 15.7378 106.005 14.0078 102.234 13.852L78.9757 11.652C76.9315 11.652 75.0465 11.022 73.3173 9.76535L65.3023 4.26535C64.989 4.10701 64.674 3.79368 64.2023 3.47952C60.2732 0.651182 59.4882 0.336181 59.0165 0.651181C58.7023 0.808681 58.5457 1.12285 58.3882 1.59368L58.2298 1.90785C57.9165 2.53701 57.9165 3.32201 58.5448 3.95118L66.5598 10.5512L66.7173 10.8653L66.4032 11.022L40.6307 10.0803L38.4298 5.05035C38.1157 4.26535 37.3298 3.79202 36.544 3.79202C35.9148 3.79202 35.2873 4.10701 34.9723 4.57785C34.8028 4.82849 34.6874 5.11167 34.6333 5.40937C34.5792 5.70707 34.5877 6.01277 34.6582 6.30701L35.6015 9.92202L13.4432 9.13702H7.78484C6.05651 9.13702 4.32734 9.76535 3.07068 11.022C1.81401 12.2795 1.02734 13.8512 1.02734 15.7378V21.3945C1.02734 27.9945 6.37068 33.4945 13.1273 33.4945H14.3848C16.1132 37.1095 19.7282 39.7812 23.9715 39.7812C28.2148 39.7812 31.9865 37.2662 33.5582 33.4953H79.4465C81.1748 37.1095 84.789 39.7812 89.0323 39.7812C93.4323 39.7812 97.0473 37.1095 98.7765 33.4953C102.862 33.0237 106.477 31.1379 108.834 27.9945C109.305 27.3654 109.619 26.7362 109.934 26.1087H110.091V25.9512C111.348 23.1228 111.506 20.6087 110.406 18.5653V18.5662ZM35.9157 5.20785C36.229 4.73618 37.0157 4.89368 37.3298 5.36535L39.2148 9.92368L36.7007 9.76535L35.7582 5.83702C35.7582 5.67868 35.759 5.52285 35.9157 5.20785ZM13.7573 32.0812H12.9715C8.72818 32.0812 4.95651 29.5662 3.22818 25.9512H13.914C13.5998 26.8945 13.4423 27.9945 13.4423 29.0945C13.2857 30.0379 13.6015 30.9803 13.7573 32.0812ZM32.7715 32.0812C32.6148 32.552 32.4582 32.8662 32.3007 33.3378C30.729 36.3237 27.5865 38.367 24.129 38.367C20.514 38.367 17.3715 36.3237 15.9573 33.3378C15.799 33.0237 15.6432 32.552 15.4857 32.0812C15.1715 31.1378 14.8565 30.0378 14.8565 28.937C14.8565 27.837 15.0148 26.737 15.4857 25.7937C15.6432 25.3228 15.7998 25.0087 15.9573 24.537C17.529 21.5512 20.6715 19.5078 24.129 19.5078C27.744 19.5078 30.729 21.5512 32.3007 24.537C32.4582 24.8512 32.6148 25.3228 32.7723 25.7937C33.0857 26.737 33.4007 27.837 33.4007 28.937C33.2432 30.037 33.0865 30.9803 32.7715 32.0812ZM78.9748 32.0812H34.0298C34.344 31.1378 34.5007 30.0378 34.5007 28.937C34.5007 27.837 34.344 26.737 34.0298 25.7937H79.1323C78.8173 26.737 78.6607 27.837 78.6607 28.937C78.6607 30.037 78.8173 30.9803 78.9748 32.0812ZM97.9898 31.9228C97.8332 32.3945 97.6765 32.7087 97.519 33.1812C96.7204 34.6986 95.5225 35.969 94.0546 36.8553C92.5867 37.7417 90.9046 38.2102 89.1898 38.2103C85.5757 38.2103 82.4315 36.167 81.0182 33.1812C80.8598 32.867 80.7032 32.3953 80.5465 31.9228C80.2315 30.9812 79.9173 29.8803 79.9173 28.7812C79.9173 27.6812 80.0757 26.5803 80.5465 25.6378C80.7032 25.1662 80.8607 24.852 81.0182 24.3795C82.5898 21.3937 85.7323 19.3503 89.1898 19.3503C92.6473 19.3503 95.7907 21.3937 97.3615 24.3795C97.519 24.6937 97.6765 25.1653 97.8332 25.6378C98.1473 26.5795 98.4615 27.6803 98.4615 28.7812C98.4615 30.0378 98.3048 30.9812 97.9898 31.9228ZM107.891 26.8945C105.848 29.5653 102.862 31.2945 99.2482 31.7662C99.5692 30.8035 99.7283 29.7943 99.719 28.7795C99.719 27.6795 99.5615 26.5795 99.2482 25.6362H108.677C108.362 26.1078 108.205 26.5803 107.891 26.8945ZM109.305 24.537H98.7765C97.0473 20.922 93.4323 18.2512 89.1898 18.2512C84.9465 18.2512 81.1748 20.7653 79.604 24.537H33.5582C31.829 20.922 28.2148 18.2512 23.9715 18.2512C19.7273 18.2512 15.9565 20.7653 14.3857 24.537H2.75651C2.43499 23.5747 2.27559 22.5657 2.28484 21.5512H5.42818C5.5912 21.5396 5.74457 21.4695 5.86014 21.354C5.97571 21.2384 6.04572 21.085 6.05734 20.922C6.04536 20.7592 5.97521 20.6061 5.85969 20.4908C5.74417 20.3754 5.59101 20.3054 5.42818 20.2937H2.28568V16.3645H5.42901C5.59198 16.3527 5.74525 16.2827 5.86078 16.1671C5.97632 16.0516 6.04639 15.8983 6.05818 15.7353C6.04637 15.5725 5.97626 15.4193 5.86071 15.3039C5.74516 15.1885 5.5919 15.1186 5.42901 15.107H2.44234C2.60068 13.8503 3.07151 12.592 4.01401 11.6495C4.95734 10.707 6.37151 10.2353 7.62901 10.2353H13.2865L66.4048 12.2787C67.0332 12.2787 67.6632 11.9645 67.819 11.3353C67.901 11.0313 67.9005 10.711 67.8176 10.4072C67.7347 10.1034 67.5724 9.82724 67.3473 9.60702L59.3323 3.16368C59.2571 3.07629 59.2158 2.96481 59.2158 2.84952C59.2158 2.73422 59.2571 2.62274 59.3323 2.53535L59.4907 2.22118L59.6473 1.90701C60.4332 2.22118 62.6332 3.79285 63.5765 4.42201C64.0473 4.73535 64.3615 5.05035 64.6765 5.20701L72.6915 10.5503C74.5773 11.9645 76.7773 12.5937 78.9773 12.7503L102.237 14.9503C104.907 15.1078 107.265 16.207 108.679 17.9362H102.708C102.545 17.9475 102.391 18.0174 102.276 18.133C102.16 18.2486 102.09 18.4022 102.079 18.5653C102.09 18.7283 102.16 18.8817 102.276 18.9972C102.392 19.1126 102.545 19.1824 102.708 19.1937H109.465C110.093 20.7653 110.093 22.652 109.307 24.537H109.305Z" fill="#002923" stroke="#002923" stroke-width="0.3"/>
<path d="M93.4329 24.5433C92.3329 23.4433 90.9188 22.8141 89.1904 22.8141C87.6188 22.8141 86.0471 23.4433 84.9471 24.5433C84.6329 24.8574 84.3188 25.3291 84.0038 25.7999C83.3868 26.732 83.0589 27.8255 83.0613 28.9433C83.0613 30.0433 83.3754 31.1441 84.0038 32.0874C84.3188 32.5583 84.6329 32.8724 84.9471 33.3441C86.0471 34.4441 87.6188 35.0733 89.1904 35.0733C90.9188 35.0733 92.3329 34.4441 93.4329 33.3441C93.7479 33.0299 94.0621 32.5583 94.3763 32.0874C94.8471 31.1441 95.3188 30.2016 95.3188 28.9433C95.3188 27.8433 95.0046 26.7433 94.3763 25.7999C94.0621 25.3291 93.7479 25.0149 93.4329 24.5433ZM92.8046 32.0874C92.3329 32.5583 91.8613 33.0299 91.2338 33.3441C90.6054 33.6583 89.8196 33.9724 89.0329 33.9724C88.2463 33.9724 87.4613 33.8158 86.8329 33.3441C86.2046 33.0299 85.7329 32.5583 85.2613 32.0874C84.5504 31.1935 84.1628 30.0854 84.1613 28.9433C84.1613 27.6858 84.6329 26.7433 85.2613 25.7999C85.7329 25.3291 86.2046 24.8574 86.8329 24.5433C87.4621 24.2291 88.2479 24.0716 89.0329 24.0716C89.8188 24.0716 90.4471 24.2299 91.2338 24.5433C91.8613 24.8574 92.3329 25.3291 92.8046 25.7999C93.5904 26.5858 93.9046 27.6858 93.9046 28.9433C94.0621 30.0433 93.5904 31.1441 92.8046 32.0874ZM44.2438 14.7949H41.1004C40.9376 14.8067 40.7844 14.8768 40.669 14.9924C40.5536 15.1079 40.4837 15.2612 40.4721 15.4241C40.4841 15.5868 40.5541 15.7397 40.6694 15.8551C40.7848 15.9704 40.9378 16.0405 41.1004 16.0524H44.2438C44.4067 16.0408 44.5599 15.9709 44.6755 15.8555C44.791 15.7401 44.8611 15.587 44.8729 15.4241C44.8611 15.2611 44.7911 15.1079 44.6755 14.9923C44.56 14.8768 44.4067 14.8067 44.2438 14.7949ZM28.2146 24.5433C27.1146 23.4433 25.7004 22.8141 23.9721 22.8141C22.4004 22.8141 20.8288 23.4433 19.7296 24.5433C19.4154 24.8574 19.1004 25.3291 18.7863 25.7999C18.1689 26.7318 17.8409 27.8254 17.8438 28.9433C17.8438 30.0433 18.1579 31.1441 18.7863 32.0874C19.1004 32.5583 19.4154 32.8724 19.7288 33.3441C20.8288 34.4441 22.4013 35.0733 23.9721 35.0733C25.5429 35.0733 27.1154 34.4441 28.2146 33.3441C28.5288 33.0299 28.8438 32.5583 29.1579 32.0874C29.6288 31.1441 30.1004 30.2016 30.1004 28.9433C30.1032 27.8255 29.7753 26.7318 29.1579 25.7999C28.8438 25.3291 28.5288 25.0149 28.2146 24.5433ZM27.5863 32.0874C27.1146 32.5583 26.6429 33.0299 26.0146 33.3441C25.3854 33.6583 24.6004 33.9724 23.8138 33.9724C23.0271 33.9724 22.2421 33.8158 21.6138 33.3441C20.9854 33.0299 20.5138 32.5583 20.0421 32.0874C19.331 31.1936 18.9433 30.0854 18.9421 28.9433C18.9421 27.6858 19.4138 26.7433 20.0421 25.7999C20.5138 25.3291 20.9854 24.8574 21.6138 24.5433C22.2429 24.2291 23.0279 24.0716 23.8138 24.0716C24.5988 24.0716 25.2279 24.2299 26.0138 24.5433C26.6429 24.8574 27.1138 25.3291 27.5863 25.7999C28.3713 26.5858 28.6863 27.6858 28.6863 28.9433C28.8438 30.0433 28.3721 31.1441 27.5863 32.0874Z" fill="#002923" stroke="#002923" stroke-width="0.3"/>
</g>
<defs>
<clipPath id="clip0_1064_8633">
<rect width="111.667" height="40" fill="white" transform="translate(0.193359)"/>
</clipPath>
</defs>
</svg>
