<svg width="103" height="40" viewBox="0 0 103 40" fill="none" xmlns="http://www.w3.org/2000/svg">
<path d="M93.5818 13.7404L78.9401 13.1668C78.2218 13.1668 77.3605 12.8791 76.7869 12.5923L67.4558 6.27743C61.7145 2.39999 54.9682 0.390625 47.9341 0.390625H34.4414C31.2839 0.390625 28.2686 1.2519 25.5418 2.83062L11.7614 10.7259C11.4745 10.8689 11.1869 11.0128 10.9001 11.0128L7.02433 11.1557C5.44475 11.1557 3.86688 11.7302 2.71795 12.8783C1.56901 14.0281 0.851562 15.4638 0.851562 17.1864V22.354C0.851562 28.3821 5.73156 33.4068 11.9043 33.4068H13.0533C14.6311 36.7089 17.9324 39.1481 21.8082 39.1481C25.6839 39.1481 29.129 36.8511 30.5639 33.4068H72.4797C74.0601 36.7089 77.3605 39.1481 81.2371 39.1481C85.1128 39.1481 88.558 36.8511 89.9928 33.4068H90.2805C96.3094 33.4068 101.333 28.5259 101.333 22.354C101.764 17.4732 98.175 13.8834 93.5818 13.7404ZM12.7656 31.9711H12.0473C8.17156 31.9711 4.72646 29.6749 3.14773 26.3728H12.9094C12.6218 27.234 12.4779 28.2391 12.4779 29.2434C12.4779 30.1047 12.6226 31.1098 12.7656 31.9711ZM30.135 31.9711C29.992 32.4017 29.8482 32.6893 29.7043 33.12C28.2694 35.8468 25.3979 37.7123 22.2405 37.7123C19.0831 37.7123 16.0677 35.8459 14.6328 33.1191C14.4882 32.8323 14.346 32.4017 14.2022 31.9711C13.9154 31.1098 13.6286 30.1047 13.6286 29.1004C13.6286 28.0962 13.7716 27.091 14.2022 26.2298C14.346 25.7991 14.4899 25.5115 14.6328 25.0808C16.0677 22.354 18.9392 20.4885 22.0975 20.4885C25.2567 20.4885 28.1265 22.3549 29.5614 25.0817C29.7043 25.3685 29.849 25.7991 29.9928 26.2298C30.2797 27.091 30.5665 28.0962 30.5665 29.1004C30.5665 30.1047 30.4226 31.1098 30.135 31.9711ZM72.4805 31.9711H31.2831C31.5699 31.1098 31.7145 30.1047 31.7145 29.1004C31.7145 28.0962 31.5699 27.091 31.2831 26.2298H72.4805C72.1937 27.091 72.0507 28.0962 72.0507 29.1004C72.0507 30.1047 72.1937 31.1098 72.4805 31.9711ZM89.706 31.9711C89.5631 32.4017 89.4192 32.6893 89.2754 33.12C87.8405 35.8468 84.969 37.7123 81.8116 37.7123C78.5094 37.7123 75.6388 35.8459 74.3477 33.1191C74.2031 32.8323 74.0601 32.4017 73.9162 31.9711C73.6286 31.1098 73.3418 30.1047 73.3418 29.1004C73.3418 28.0962 73.4865 27.091 73.9162 26.2298C74.0601 25.7991 74.2031 25.5115 74.3469 25.0808C75.7826 22.354 78.6533 20.4885 81.8107 20.4885C84.9682 20.4885 87.8405 22.3549 89.2754 25.0817C89.4192 25.3685 89.5631 25.7991 89.706 26.2298C89.9928 27.091 90.2805 28.0962 90.2805 29.1004C90.1367 30.1055 89.9928 31.1098 89.706 31.9711ZM90.8541 31.9711C91.1418 31.1098 91.2856 30.1047 91.2856 29.1004C91.2856 28.0962 91.1418 27.091 90.8541 26.2298H99.6107C98.815 27.8955 97.5781 29.3113 96.0343 30.3235C94.4906 31.3357 92.699 31.9055 90.8541 31.9711ZM90.4243 25.2247C88.8448 21.9225 85.5426 19.4825 81.6677 19.4825C77.7928 19.4825 74.3469 21.7796 72.912 25.2247H30.8516C29.272 21.9225 25.9707 19.4825 22.095 19.4825C18.2192 19.4825 14.7741 21.7796 13.3392 25.2247H2.71709C2.42358 24.3456 2.27834 23.4238 2.28731 22.497H5.15795C5.30675 22.4865 5.44674 22.4226 5.55214 22.317C5.65755 22.2114 5.72126 22.0714 5.73156 21.9225C5.72107 21.7739 5.65726 21.634 5.55188 21.5286C5.44649 21.4232 5.30661 21.3594 5.15795 21.3489H2.28731V17.7608H5.15795C5.30675 17.7503 5.44674 17.6864 5.55214 17.5808C5.65755 17.4753 5.72126 17.3352 5.73156 17.1864C5.72126 17.0376 5.65755 16.8975 5.55214 16.7919C5.44674 16.6863 5.30675 16.6224 5.15795 16.6119H2.43029C2.57326 15.4638 3.0039 14.3157 3.86518 13.4545C4.72646 12.5932 6.01837 12.1617 7.16731 12.1617H7.31114L11.1869 12.0187C11.6184 12.0187 12.192 11.8757 12.6226 11.5881L26.4031 3.54977C28.9869 2.11488 31.8575 1.2536 34.729 1.2536H48.2218C54.9682 1.2536 61.4277 3.26211 67.026 6.99488L76.3563 13.3098C77.2112 13.7461 78.1327 14.0374 79.0831 14.1719L93.7248 14.7455C96.3094 14.8885 98.4618 16.1813 99.6107 18.1906H94.0124C93.8637 18.2015 93.7237 18.2655 93.6183 18.3709C93.5128 18.4764 93.4488 18.6163 93.438 18.7651C93.4483 18.914 93.5122 19.054 93.6178 19.1595C93.7234 19.2649 93.8635 19.3286 94.0124 19.3387H100.184C100.472 20.2 100.759 21.0613 100.759 22.0664C100.759 23.2153 100.616 24.2196 100.184 25.2238H90.4235L90.4243 25.2247Z" fill="#0F0F0F"/>
<path d="M12.7656 31.9711H12.0473C8.17156 31.9711 4.72646 29.6749 3.14773 26.3728H12.9094C12.6218 27.234 12.4779 28.2391 12.4779 29.2434C12.4779 30.1047 12.6226 31.1098 12.7656 31.9711ZM12.7656 31.9711H12.7665M93.5818 13.7404L78.9401 13.1668C78.2218 13.1668 77.3605 12.8791 76.7869 12.5923L67.4558 6.27743C61.7145 2.39999 54.9682 0.390625 47.9341 0.390625H34.4414C31.2839 0.390625 28.2686 1.2519 25.5418 2.83062L11.7614 10.7259C11.4745 10.8689 11.1869 11.0128 10.9001 11.0128L7.02433 11.1557C5.44475 11.1557 3.86688 11.7302 2.71795 12.8783C1.56901 14.0281 0.851562 15.4638 0.851562 17.1864V22.354C0.851562 28.3821 5.73156 33.4068 11.9043 33.4068H13.0533C14.6311 36.7089 17.9324 39.1481 21.8082 39.1481C25.6839 39.1481 29.129 36.8511 30.5639 33.4068H72.4797C74.0601 36.7089 77.3605 39.1481 81.2371 39.1481C85.1128 39.1481 88.558 36.8511 89.9928 33.4068H90.2805C96.3094 33.4068 101.333 28.5259 101.333 22.354C101.764 17.4732 98.175 13.8834 93.5818 13.7404ZM30.135 31.9711C29.992 32.4017 29.8482 32.6893 29.7043 33.12C28.2694 35.8468 25.3979 37.7123 22.2405 37.7123C19.0831 37.7123 16.0677 35.8459 14.6328 33.1191C14.4882 32.8323 14.346 32.4017 14.2022 31.9711C13.9154 31.1098 13.6286 30.1047 13.6286 29.1004C13.6286 28.0962 13.7716 27.091 14.2022 26.2298C14.346 25.7991 14.4899 25.5115 14.6328 25.0808C16.0677 22.354 18.9392 20.4885 22.0975 20.4885C25.2567 20.4885 28.1265 22.3549 29.5614 25.0817C29.7043 25.3685 29.849 25.7991 29.9928 26.2298C30.2797 27.091 30.5665 28.0962 30.5665 29.1004C30.5665 30.1047 30.4226 31.1098 30.135 31.9711ZM72.4805 31.9711H31.2831C31.5699 31.1098 31.7145 30.1047 31.7145 29.1004C31.7145 28.0962 31.5699 27.091 31.2831 26.2298H72.4805C72.1937 27.091 72.0507 28.0962 72.0507 29.1004C72.0507 30.1047 72.1937 31.1098 72.4805 31.9711ZM89.706 31.9711C89.5631 32.4017 89.4192 32.6893 89.2754 33.12C87.8405 35.8468 84.969 37.7123 81.8116 37.7123C78.5094 37.7123 75.6388 35.8459 74.3477 33.1191C74.2031 32.8323 74.0601 32.4017 73.9162 31.9711C73.6286 31.1098 73.3418 30.1047 73.3418 29.1004C73.3418 28.0962 73.4865 27.091 73.9162 26.2298C74.0601 25.7991 74.2031 25.5115 74.3469 25.0808C75.7826 22.354 78.6533 20.4885 81.8107 20.4885C84.9682 20.4885 87.8405 22.3549 89.2754 25.0817C89.4192 25.3685 89.5631 25.7991 89.706 26.2298C89.9928 27.091 90.2805 28.0962 90.2805 29.1004C90.1367 30.1055 89.9928 31.1098 89.706 31.9711ZM90.8541 31.9711C91.1418 31.1098 91.2856 30.1047 91.2856 29.1004C91.2856 28.0962 91.1418 27.091 90.8541 26.2298H99.6107C98.815 27.8955 97.5781 29.3113 96.0343 30.3235C94.4906 31.3357 92.699 31.9055 90.8541 31.9711ZM90.4243 25.2247C88.8448 21.9225 85.5426 19.4825 81.6677 19.4825C77.7928 19.4825 74.3469 21.7796 72.912 25.2247H30.8516C29.272 21.9225 25.9707 19.4825 22.095 19.4825C18.2192 19.4825 14.7741 21.7796 13.3392 25.2247H2.71709C2.42358 24.3456 2.27834 23.4238 2.28731 22.497H5.15795C5.30675 22.4865 5.44674 22.4226 5.55214 22.317C5.65755 22.2114 5.72126 22.0714 5.73156 21.9225C5.72107 21.7739 5.65726 21.634 5.55188 21.5286C5.44649 21.4232 5.30661 21.3594 5.15795 21.3489H2.28731V17.7608H5.15795C5.30675 17.7503 5.44674 17.6864 5.55214 17.5808C5.65755 17.4753 5.72126 17.3352 5.73156 17.1864C5.72126 17.0376 5.65755 16.8975 5.55214 16.7919C5.44674 16.6863 5.30675 16.6224 5.15795 16.6119H2.43029C2.57326 15.4638 3.0039 14.3157 3.86518 13.4545C4.72646 12.5932 6.01837 12.1617 7.16731 12.1617H7.31114L11.1869 12.0187C11.6184 12.0187 12.192 11.8757 12.6226 11.5881L26.4031 3.54977C28.9869 2.11488 31.8575 1.2536 34.729 1.2536H48.2218C54.9682 1.2536 61.4277 3.26211 67.026 6.99488L76.3563 13.3098C77.2112 13.7461 78.1327 14.0374 79.0831 14.1719L93.7248 14.7455C96.3094 14.8885 98.4618 16.1813 99.6107 18.1906H94.0124C93.8637 18.2015 93.7237 18.2655 93.6183 18.3709C93.5128 18.4764 93.4488 18.6163 93.438 18.7651C93.4483 18.914 93.5122 19.054 93.6178 19.1595C93.7234 19.2649 93.8635 19.3286 94.0124 19.3387H100.184C100.472 20.2 100.759 21.0613 100.759 22.0664C100.759 23.2153 100.616 24.2196 100.184 25.2238H90.4235L90.4243 25.2247Z" stroke="#0F0F0F" stroke-width="0.3"/>
<path d="M48.6513 3.69336H36.3074C33.2921 3.69336 30.2785 4.98613 28.1253 7.2823C27.6336 7.78358 27.3026 8.42013 27.1747 9.11055C27.0467 9.80096 27.1276 10.5138 27.407 11.158C27.9815 12.45 29.1295 13.3112 30.5644 13.3112L70.7576 14.6048C71.0453 14.6048 71.3321 14.461 71.3321 14.1742V13.7427L67.7432 10.7283C62.5755 6.27804 55.6853 3.69336 48.6513 3.69336ZM30.5644 12.3061C29.5602 12.3061 28.6981 11.7317 28.4113 10.7266C27.9815 9.86527 28.2683 8.86017 28.9857 7.99889C30.8521 5.98953 33.5789 4.84144 36.3066 4.84144H46.6419L49.5125 12.8789L30.5644 12.3053V12.3061ZM50.6606 13.0236L47.79 4.8423H48.6513C55.3985 4.8423 62.001 7.2823 67.1687 11.5887L69.4657 13.598L50.6606 13.0236ZM85.5432 25.2253C84.5389 24.2202 83.247 23.6457 81.6674 23.6457C80.0878 23.6457 78.7968 24.2202 77.7925 25.2253C77.5057 25.5121 77.2181 25.9427 76.9312 26.3734C76.3674 27.2244 76.0677 28.2231 76.07 29.244C76.0676 30.2649 76.3673 31.2637 76.9312 32.1146C77.2181 32.5453 77.5057 32.8321 77.7925 33.2636C78.7968 34.2678 80.2325 34.8423 81.6674 34.8423C83.1032 34.8423 84.5389 34.2687 85.5432 33.2627C85.8308 32.9759 86.1176 32.5453 86.4044 32.1146C86.8359 31.2534 87.2657 30.3921 87.2657 29.244C87.2682 28.2231 86.9686 27.2243 86.4044 26.3734C86.1176 25.9427 85.8308 25.5129 85.5432 25.2253ZM84.9695 31.9717C84.5389 32.4014 84.1083 32.8329 83.5338 33.1206C82.9602 33.4074 82.2419 33.6942 81.5244 33.6942C80.807 33.6942 80.0895 33.5512 79.5151 33.1197C78.9406 32.8329 78.51 32.4023 78.0793 31.9717C77.4304 31.1554 77.0765 30.1438 77.0751 29.101C77.0751 27.9521 77.5057 27.0917 78.0793 26.2304C78.51 25.7997 78.9406 25.3691 79.5151 25.0814C80.0887 24.7946 80.8061 24.6517 81.5244 24.6517C82.2427 24.6517 82.8155 24.7946 83.5338 25.0814C84.1083 25.3691 84.5389 25.7997 84.9695 26.2304C85.6878 26.9478 85.9747 27.9529 85.9747 29.101C86.1176 30.25 85.6878 31.2542 84.9695 31.9717ZM54.9695 17.0431H52.0989C51.95 17.0535 51.8098 17.1173 51.7042 17.2229C51.5986 17.3285 51.5348 17.4687 51.5244 17.6176C51.535 17.7664 51.5989 17.9064 51.7045 18.0118C51.81 18.1172 51.9501 18.1809 52.0989 18.1912H54.9695C55.1184 18.1809 55.2585 18.1172 55.364 18.0118C55.4696 17.9064 55.5335 17.7664 55.544 17.6176C55.544 17.33 55.401 17.0431 54.9695 17.0431ZM33.5815 17.0431H30.7108C30.5619 17.0535 30.4217 17.1173 30.3161 17.2229C30.2105 17.3285 30.1467 17.4687 30.1364 17.6176C30.1469 17.7664 30.2108 17.9064 30.3164 18.0118C30.4219 18.1172 30.562 18.1809 30.7108 18.1912H33.5815C33.7301 18.1807 33.87 18.1169 33.9754 18.0115C34.0808 17.9062 34.1446 17.7663 34.1551 17.6176C34.1448 17.4688 34.0811 17.3287 33.9757 17.2232C33.8703 17.1176 33.7303 17.0537 33.5815 17.0431ZM25.9721 25.2253C24.9678 24.2202 23.6759 23.6457 22.0964 23.6457C20.6606 23.6457 19.2257 24.2202 18.2206 25.2253C17.9338 25.5121 17.6461 25.9427 17.3593 26.3734C16.7954 27.2244 16.4958 28.2231 16.4981 29.244C16.4957 30.2649 16.7954 31.2637 17.3593 32.1146C17.6461 32.5453 17.9338 32.8321 18.2206 33.2636C19.2257 34.2678 20.6606 34.8423 22.0964 34.8423C23.6759 34.8423 24.967 34.2687 25.9721 33.2627C26.2598 32.9759 26.5466 32.5453 26.8334 32.1146C27.2649 31.2534 27.6947 30.3921 27.6947 29.244C27.697 28.2231 27.3974 27.2243 26.8334 26.3734C26.5466 25.9427 26.2598 25.5129 25.9721 25.2253ZM25.3985 31.9717C24.967 32.4014 24.5372 32.8329 23.9627 33.1206C23.3891 33.4074 22.6708 33.6942 21.9534 33.6942C21.2359 33.6942 20.5176 33.5512 19.944 33.1197C19.3695 32.8329 18.9398 32.4023 18.5083 31.9717C17.8594 31.1554 17.5054 30.1438 17.504 29.101C17.504 27.9521 17.9338 27.0917 18.5083 26.2304C18.9389 25.7997 19.3695 25.3691 19.944 25.0814C20.5176 24.7946 21.2359 24.6517 21.9525 24.6517C22.6708 24.6517 23.2461 24.7946 23.9627 25.0814C24.5372 25.3691 24.9678 25.7997 25.3985 26.2304C26.1159 26.9478 26.4027 27.9529 26.4027 29.101C26.5466 30.25 26.1159 31.2542 25.3985 31.9717Z" fill="#0F0F0F" stroke="#0F0F0F" stroke-width="0.3"/>
</svg>
