<svg width="103" height="40" viewBox="0 0 103 40" fill="none" xmlns="http://www.w3.org/2000/svg">
<g clip-path="url(#clip0_1064_8632)">
<path d="M94.1894 14.2223L68.1319 13.7907C66.261 13.7907 64.5335 13.2148 62.9502 12.0632L56.1835 7.02398C50.8585 2.99315 44.236 0.833984 37.4694 0.833984C31.566 0.833984 25.6635 2.56148 20.6252 5.72898L11.9885 11.1998C11.7002 11.3432 11.4127 11.4873 11.1244 11.4873L7.23771 11.6315C5.51021 11.6315 4.07104 12.2065 2.91937 13.359C1.76604 14.5107 1.04688 15.9507 1.04688 17.6773V22.8606C1.04688 28.9065 5.94187 33.9448 12.1319 33.9448H13.2844C14.8677 37.2565 18.1785 39.7032 22.0652 39.7032C25.9519 39.7032 29.4069 37.4007 30.8469 33.9448H72.8835C74.4669 37.2565 77.7777 39.7032 81.6652 39.7032C85.5519 39.7032 89.0069 37.4007 90.446 33.9448H90.7344C96.781 33.9448 101.819 29.0507 101.819 22.8598C102.395 17.9648 98.796 14.3665 94.1894 14.2223ZM13.1394 32.5057H12.4202C10.5559 32.4994 8.7308 31.9698 7.15276 30.9771C5.57471 29.9844 4.30714 28.5685 3.49437 26.8907H13.2844C12.996 27.7548 12.8527 28.7623 12.8527 29.7698C12.8527 30.634 12.996 31.4965 13.1402 32.5048L13.1394 32.5057ZM30.5585 32.5057C30.4152 32.9365 30.271 33.2248 30.1269 33.6573C28.6869 36.3923 25.8085 38.264 22.641 38.264C21.0703 38.264 19.5293 37.8349 18.1846 37.0231C16.8399 36.2112 15.7425 35.0474 15.011 33.6573C14.8677 33.369 14.7227 32.9373 14.5794 32.5048C14.291 31.6415 14.0035 30.634 14.0035 29.6265C14.0035 28.6181 14.1469 27.6098 14.5794 26.7473C14.7227 26.3157 14.8677 26.0282 15.011 25.5957C16.451 22.8598 19.3302 20.9882 22.4969 20.9882C25.6635 20.9882 28.5427 22.8598 29.9827 25.5957C30.126 25.8832 30.271 26.3148 30.4144 26.7473C30.7027 27.6115 30.9902 28.619 30.9902 29.6265C30.9902 30.634 30.8469 31.4982 30.5585 32.5057ZM73.0269 32.5057H31.7102C31.9985 31.6415 32.1419 30.634 32.1419 29.6265C32.1419 28.6181 31.9985 27.6098 31.711 26.7473H73.0277C72.7394 27.6115 72.5952 28.619 72.5952 29.6265C72.5952 30.634 72.7394 31.4982 73.0269 32.5057ZM90.3027 32.5057C90.1585 32.9365 90.0144 33.2248 89.8702 33.6573C88.431 36.3923 85.551 38.264 82.3844 38.264C79.0735 38.264 76.1944 36.3923 74.8985 33.6573C74.7552 33.369 74.6102 32.9373 74.4669 32.5048C74.1794 31.6415 73.891 30.634 73.891 29.6265C73.891 28.6181 74.0344 27.6098 74.4669 26.7473C74.6102 26.3157 74.7552 26.0282 74.8985 25.5957C76.3385 22.8598 79.2177 20.9882 82.3844 20.9882C85.696 20.9882 88.431 22.8598 89.8702 25.5957C90.0144 25.8832 90.1585 26.3148 90.3027 26.7473C90.5902 27.6115 90.8785 28.619 90.8785 29.6265C90.7344 30.634 90.5902 31.4982 90.3027 32.5057ZM91.4535 32.3615C91.7419 31.4982 91.886 30.4898 91.886 29.4823C91.886 28.4748 91.7419 27.4673 91.4535 26.604H100.236C98.6527 30.059 95.341 32.3615 91.4535 32.3615ZM91.0219 25.5948C89.4385 22.284 86.1277 19.8365 82.241 19.8365C78.3544 19.8365 74.8985 22.1398 73.4585 25.5948H31.2785C29.6952 22.284 26.3835 19.8365 22.4969 19.8365C18.6102 19.8365 15.1552 22.1398 13.7152 25.5948H3.06354C2.76901 24.7134 2.62313 23.7891 2.63187 22.8598H5.51104C5.6603 22.8493 5.80076 22.7853 5.90656 22.6795C6.01236 22.5737 6.0764 22.4332 6.08687 22.284C6.07623 22.1348 6.01214 21.9944 5.90637 21.8887C5.8006 21.7829 5.66024 21.7188 5.51104 21.7082H2.63021V18.1082H5.50937C5.6585 18.0977 5.79885 18.0338 5.90464 17.9282C6.01042 17.8225 6.07454 17.6823 6.08521 17.5332C6.07475 17.3838 6.01075 17.2432 5.90496 17.1373C5.79917 17.0314 5.65871 16.9672 5.50937 16.9565H2.77437C2.91854 15.8048 3.35104 14.654 4.21438 13.7898C5.07854 12.9257 6.37437 12.494 7.52604 12.494H7.66937L11.5569 12.3507C12.0674 12.342 12.5657 12.1926 12.9969 11.919L21.6327 6.44815C26.5277 3.42482 32.1419 1.69815 37.7569 1.69815C44.2352 1.69815 50.5685 3.85732 55.7519 7.60065L62.5185 12.639C64.246 13.934 66.2602 14.5098 68.2769 14.6548L94.3335 15.0865C96.9244 15.2298 99.0844 16.5257 100.236 18.5406H94.6219C94.4723 18.5508 94.3314 18.6148 94.2254 18.7208C94.1194 18.8269 94.0553 18.9677 94.0452 19.1173C94.0564 19.2664 94.1208 19.4065 94.2267 19.512C94.3325 19.6176 94.4728 19.6815 94.6219 19.6923H100.812C101.1 20.5573 101.387 21.4207 101.387 22.4282C101.387 23.5807 101.244 24.5881 100.812 25.5948H91.0219Z" fill="#002923" stroke="#002923" stroke-width="0.3"/>
<path d="M86.1278 25.5963C85.1203 24.588 83.8245 24.013 82.2403 24.013C80.6562 24.013 79.3612 24.588 78.3537 25.5963C78.0653 25.8838 77.7778 26.3155 77.4895 26.748C76.9237 27.6014 76.6231 28.6032 76.6253 29.6271C76.6253 30.6346 76.9137 31.6421 77.4895 32.5063C77.7778 32.9371 78.0653 33.2255 78.3537 33.658C79.3612 34.6655 80.8012 35.2413 82.2403 35.2413C83.6795 35.2413 85.1203 34.6655 86.1278 33.658C86.4153 33.3696 86.7037 32.938 86.9912 32.5055C87.4228 31.6421 87.8553 30.778 87.8553 29.6271C87.8576 28.6032 87.5569 27.6014 86.9912 26.748C86.7037 26.3163 86.4153 26.028 86.1278 25.5963ZM85.5512 32.5063C85.1203 32.9371 84.6878 33.3696 84.112 33.658C83.5353 33.9455 82.8162 34.233 82.0962 34.233C81.377 34.233 80.657 34.0905 80.0812 33.658C79.5062 33.3696 79.0728 32.938 78.642 32.5055C77.991 31.6871 77.6357 30.6728 77.6337 29.6271C77.6337 28.4746 78.0653 27.6105 78.642 26.748C79.0728 26.3163 79.5053 25.8838 80.0812 25.5963C80.6562 25.308 81.377 25.1646 82.0962 25.1646C82.8162 25.1646 83.392 25.308 84.112 25.5963C84.6878 25.8838 85.1203 26.3155 85.5512 26.748C86.2712 27.4671 86.5587 28.4755 86.5587 29.6271C86.7037 30.6346 86.2712 31.6421 85.5512 32.5063ZM37.9012 16.668H35.022C34.8728 16.6786 34.7324 16.7427 34.6267 16.8485C34.5209 16.9543 34.4568 17.0946 34.4462 17.2438C34.4566 17.3931 34.5207 17.5335 34.6265 17.6393C34.7323 17.7451 34.8727 17.8092 35.022 17.8196H37.9012C38.0501 17.809 38.1903 17.745 38.2959 17.6394C38.4015 17.5338 38.4655 17.3936 38.4762 17.2446C38.4659 17.0954 38.4021 16.9548 38.2964 16.8489C38.1908 16.7429 38.0504 16.6787 37.9012 16.668ZM26.3837 25.5963C25.3753 24.588 24.0803 24.013 22.497 24.013C21.057 24.013 19.6178 24.588 18.6103 25.5963C18.3228 25.8838 18.0345 26.3155 17.7462 26.748C17.1807 27.6015 16.8803 28.6033 16.8828 29.6271C16.8804 30.651 17.1808 31.6527 17.7462 32.5063C18.0345 32.9371 18.3228 33.2255 18.6103 33.658C19.6187 34.6655 21.0578 35.2413 22.4978 35.2413C24.0812 35.2413 25.377 34.6655 26.3853 33.658C26.6728 33.3696 26.9603 32.938 27.2487 32.5055C27.6803 31.6421 28.1128 30.778 28.1128 29.6271C28.1152 28.6032 27.8145 27.6014 27.2487 26.748C26.9612 26.3163 26.6737 26.028 26.3853 25.5963H26.3837ZM25.8078 32.5063C25.3762 32.9371 24.9437 33.3696 24.3678 33.658C23.792 33.9455 23.072 34.233 22.3528 34.233C21.6328 34.233 20.9128 34.0905 20.3378 33.658C19.7612 33.3696 19.3295 32.938 18.8978 32.5055C18.2469 31.6871 17.8915 30.6728 17.8895 29.6271C17.8895 28.4746 18.3212 27.6105 18.8978 26.748C19.3295 26.3163 19.7612 25.8838 20.3378 25.5963C20.9128 25.308 21.6328 25.1646 22.3537 25.1646C23.0737 25.1646 23.6487 25.308 24.3687 25.5963C24.9437 25.8838 25.3762 26.3155 25.8078 26.748C26.5278 27.4671 26.8162 28.4755 26.8162 29.6271C26.9595 30.6346 26.5278 31.6421 25.8078 32.5063ZM54.887 9.18548C52.297 7.02548 49.2737 5.58548 45.962 4.57881C42.6503 3.57048 39.3403 3.28298 35.8845 3.57048L34.0128 3.71465C30.8462 4.00215 27.8228 5.29798 25.3753 7.45715C24.2228 8.46548 23.9353 9.90465 24.367 11.3446C24.8003 12.7846 26.0953 13.648 27.5345 13.7921L58.4862 15.3755H58.6295C59.2062 15.3755 59.6378 15.088 59.782 14.5113C59.9262 13.9363 59.782 13.3596 59.3503 13.0721L54.887 9.18548ZM27.8237 12.4963C26.5278 12.4963 25.8078 11.633 25.6637 10.7688C25.3762 10.0488 25.3762 8.89715 26.3837 8.03298C27.8237 6.73798 29.5503 5.73048 31.422 5.15465L32.717 12.6405L27.8237 12.4963ZM58.7753 14.0796L33.7253 12.7846L32.2862 5.01048C32.8612 4.86715 33.5812 4.72298 34.157 4.72298L36.0287 4.57881C36.7487 4.57881 37.4687 4.43548 38.1878 4.43548C40.7795 4.43548 43.227 4.86715 45.6737 5.58715C48.8403 6.59548 51.7203 8.03465 54.167 10.0496L58.917 13.793V13.9363L58.7753 14.0796Z" fill="#002923" stroke="#002923" stroke-width="0.3"/>
</g>
<defs>
<clipPath id="clip0_1064_8632">
<rect width="102.5" height="40" fill="white" transform="translate(0.212891)"/>
</clipPath>
</defs>
</svg>
