<svg width="104" height="40" viewBox="0 0 104 40" fill="none" xmlns="http://www.w3.org/2000/svg">
<path d="M94.5996 14.1268L79.777 13.5451C79.05 13.5451 78.1787 13.2546 77.5978 12.9642L66.4083 5.40853C61.6126 2.21114 56.09 0.466797 50.4222 0.466797H14.6744C12.0587 0.466797 9.58827 1.62854 7.99001 3.80854L1.88653 11.8016C1.15958 12.6729 0.869141 13.8364 0.869141 14.9981V22.5546C0.869141 28.659 5.81001 33.7442 12.0587 33.7442H13.2213C14.8196 37.0859 18.1622 39.5572 22.0857 39.5572C26.0083 39.5572 29.497 37.232 30.95 33.7442H73.3822C74.9804 37.0859 78.3231 39.5572 82.2465 39.5572C86.1709 39.5572 89.6578 37.232 91.1109 33.7442H91.4013C97.5048 33.7442 102.591 28.8033 102.591 22.5546C102.881 17.9051 99.2491 14.2711 94.5996 14.1268ZM12.93 32.5816H12.2039C8.27958 32.5816 4.79262 30.2564 3.19349 26.9146H13.0752C12.7848 27.7868 12.6387 28.8042 12.6387 29.8216C12.4935 30.6929 12.6387 31.7103 12.93 32.5816ZM30.3683 32.5816C30.2239 33.0181 30.0778 33.3085 29.9326 33.7442C29.1943 35.1476 28.0866 36.3226 26.729 37.1422C25.3715 37.9618 23.8158 38.3949 22.23 38.3946C18.8874 38.3946 15.9822 36.5051 14.6735 33.7442C14.5283 33.4537 14.3831 33.0172 14.2378 32.5816C13.9474 31.7103 13.657 30.6929 13.657 29.6755C13.657 28.6581 13.8022 27.6407 14.2378 26.7694C14.3822 26.3329 14.5283 26.0424 14.6744 25.6068C16.1265 22.8459 19.0335 20.9572 22.2309 20.9572C25.5726 20.9572 28.3335 22.8459 29.7874 25.6068C29.9326 25.8972 30.077 26.3337 30.2222 26.7694C30.5135 27.6407 30.8048 28.6581 30.8048 29.6755C30.8048 30.6929 30.6596 31.7103 30.3683 32.5816ZM73.2378 32.5816H31.5309C31.8213 31.7103 31.9674 30.6929 31.9674 29.6755C31.9674 28.6581 31.8213 27.6407 31.5309 26.7694H73.237C72.9465 27.6407 72.8022 28.6581 72.8022 29.6755C72.8022 30.6929 72.9474 31.7103 73.2378 32.5816ZM90.6761 32.5816C90.5309 33.0181 90.3848 33.3085 90.2404 33.7442C88.7865 36.5051 85.8804 38.3946 82.6839 38.3946C81.0982 38.3948 79.5425 37.9617 78.185 37.1421C76.8275 36.3225 75.7197 35.1475 74.9813 33.7442C74.8361 33.4537 74.6909 33.0172 74.5457 32.5816C74.2552 31.7103 73.9639 30.6929 73.9639 29.6755C73.9639 28.6581 74.11 27.6407 74.5457 26.7694C74.6909 26.3329 74.8361 26.0424 74.9813 25.6068C76.4344 22.8459 79.3413 20.9572 82.5378 20.9572C85.8804 20.9572 88.6413 22.8459 90.0944 25.6068C90.2404 25.8972 90.3848 26.3337 90.5309 26.7694C90.8213 27.6407 91.1117 28.6581 91.1117 29.6755C91.1117 30.6929 90.9665 31.7103 90.6761 32.5816ZM91.8387 32.5816C92.1291 31.7103 92.2744 30.6929 92.2744 29.6755C92.2744 28.6581 92.1291 27.6407 91.8387 26.7694H100.703C99.8976 28.4557 98.6455 29.889 97.0827 30.9137C95.52 31.9384 93.7063 32.5152 91.8387 32.5816ZM91.4022 25.752C89.8039 22.4094 86.4622 19.939 82.5378 19.939C78.6144 19.939 75.1265 22.2642 73.6735 25.752H31.0952C29.497 22.4094 26.1552 19.939 22.2309 19.939C18.3074 19.939 14.8196 22.2642 13.3665 25.752H2.61349C2.31589 24.8623 2.16837 23.9293 2.17697 22.9911H5.08392C5.23464 22.9806 5.37646 22.9159 5.48321 22.809C5.58997 22.702 5.65446 22.5601 5.66479 22.4094C5.65426 22.2588 5.58968 22.1171 5.48294 22.0104C5.37621 21.9036 5.2345 21.8391 5.08392 21.8285H2.17697V18.1955H5.08392C5.23464 18.1849 5.37646 18.1202 5.48321 18.0133C5.58997 17.9064 5.65446 17.7645 5.66479 17.6138C5.65426 17.4632 5.58968 17.3215 5.48294 17.2147C5.37621 17.108 5.2345 17.0434 5.08392 17.0329H2.17697V14.9981C2.17821 14.0996 2.48587 13.2285 3.04914 12.5285L9.15262 4.53549C10.4604 2.79114 12.6396 1.62854 14.8196 1.62854H50.5683C56.09 1.62854 61.3213 3.22767 65.9726 6.27897L77.1622 13.8355C78.0335 14.2711 78.9057 14.5624 79.9231 14.7068L94.7457 15.2877C97.3613 15.4329 99.5413 16.7407 100.704 18.7755H95.0361C94.8855 18.7864 94.7439 18.8512 94.6372 18.9581C94.5305 19.0649 94.4659 19.2066 94.4552 19.3572C94.4663 19.5076 94.531 19.649 94.6377 19.7557C94.7443 19.8623 94.8857 19.927 95.0361 19.9381H101.285C101.575 20.8094 101.866 21.6824 101.866 22.699C101.866 23.8607 101.721 24.8781 101.285 25.8955H91.403V25.7503L91.4022 25.752Z" fill="#002923" stroke="#002923" stroke-width="0.3375"/>
<path d="M49.1151 3.95381L15.1108 3.80859C13.076 3.80859 11.3325 4.82599 10.1699 6.42425L7.11775 10.9295C6.82818 11.5103 6.6821 12.0921 6.97253 12.6729C7.26296 13.2538 7.8447 13.5451 8.4247 13.5451L22.6664 13.8356H22.9569L71.203 14.9973C71.4934 14.9973 71.7838 14.8521 71.7838 14.5616V14.1251L68.1508 11.0729C63.2099 6.56859 56.2351 3.95294 49.1143 3.95294L49.1151 3.95381ZM22.6673 12.8173L8.71688 12.5269C8.42644 12.5269 8.28036 12.2356 8.28036 12.2356C8.28036 12.0903 8.13601 11.9451 8.28036 11.6547L11.3325 7.15033C12.2038 5.84164 13.6577 5.11555 15.256 5.11555H25.7186L22.6673 12.8173ZM23.8299 12.9625L26.8812 5.11555L42.2847 5.26077L43.7377 13.5442L23.8299 12.9625ZM44.7551 13.399L43.3038 5.11642H48.9708C55.8004 5.11642 62.4847 7.58686 67.7169 11.9469L70.0421 13.9816L44.7569 13.4008V13.3999L44.7551 13.399ZM86.463 25.7521C85.4456 24.7347 84.1369 24.1529 82.5386 24.1529C81.0864 24.1529 79.6325 24.7347 78.6151 25.7521C78.3238 26.0425 78.0334 26.479 77.743 26.9138C77.1694 27.7746 76.8633 28.7859 76.8633 29.8203C76.8633 30.8547 77.1694 31.866 77.743 32.7269C78.0334 33.1634 78.3238 33.4538 78.6151 33.8895C79.6325 34.9069 81.0856 35.4877 82.5386 35.4877C84.1369 35.4877 85.4456 34.9069 86.463 33.8895C86.7534 33.599 87.0438 33.1625 87.3343 32.7269C87.7708 31.8556 88.2056 30.9834 88.2056 29.8208C88.2081 28.7871 87.905 27.7757 87.3343 26.9138C87.0438 26.4782 86.7534 26.0425 86.463 25.7521ZM86.0264 32.5825C85.5899 33.0182 85.1543 33.4538 84.5743 33.7442C83.9917 34.0347 83.2656 34.326 82.5395 34.326C81.8117 34.326 81.0856 34.1799 80.5047 33.7442C79.9221 33.4538 79.4873 33.0173 79.0508 32.5825C78.3936 31.7559 78.0351 30.7315 78.0334 29.6756C78.0334 28.5129 78.4699 27.6408 79.0508 26.7695C79.4873 26.3329 79.923 25.8973 80.5038 25.6069C81.0847 25.3164 81.8117 25.1703 82.5386 25.1703C83.2656 25.1703 83.8464 25.3156 84.5734 25.6069C85.1543 25.8973 85.5908 26.3338 86.0256 26.7695C86.7534 27.4956 87.0438 28.5138 87.0438 29.6756C87.0421 30.7315 86.6836 31.7559 86.0264 32.5825ZM55.6551 17.4695H52.7473C52.5967 17.48 52.455 17.5446 52.3483 17.6513C52.2416 17.7581 52.177 17.8998 52.1664 18.0503C52.1768 18.2011 52.2413 18.343 52.348 18.4499C52.4548 18.5568 52.5966 18.6215 52.7473 18.6321H55.6543C55.805 18.6215 55.9468 18.5568 56.0536 18.4499C56.1603 18.343 56.2248 18.2011 56.2351 18.0503C56.2246 17.8998 56.16 17.7581 56.0533 17.6513C55.9466 17.5446 55.8057 17.48 55.6551 17.4695ZM33.8577 17.4695H30.9517C30.8009 17.4798 30.659 17.5443 30.5521 17.651C30.4452 17.7578 30.3805 17.8996 30.3699 18.0503C30.3803 18.2012 30.4449 18.3432 30.5518 18.4502C30.6588 18.5571 30.8008 18.6217 30.9517 18.6321H33.8577C34.0085 18.6215 34.1503 18.5568 34.257 18.4499C34.3638 18.343 34.4283 18.2011 34.4386 18.0503C34.4281 17.8998 34.3635 17.7581 34.2568 17.6513C34.15 17.5446 34.0083 17.48 33.8577 17.4695ZM26.156 25.7521C25.1386 24.7347 23.8317 24.1529 22.2325 24.1529C20.7804 24.1529 19.3264 24.7347 18.3091 25.7521C18.0177 26.0425 17.7273 26.479 17.4369 26.9138C16.8661 27.7756 16.5629 28.7871 16.5656 29.8208C16.5656 30.8382 16.856 31.8556 17.4369 32.7269C17.7273 33.1634 18.0177 33.4538 18.3091 33.8895C19.3264 34.9069 20.7786 35.4877 22.2325 35.4877C23.8308 35.4877 25.1395 34.9069 26.1569 33.8895C26.4473 33.599 26.7377 33.1625 27.0282 32.7269C27.4647 31.8556 27.9004 30.9834 27.9004 29.8208C27.9004 28.8034 27.6091 27.786 27.0282 26.9138C26.7377 26.4782 26.4464 26.0425 26.156 25.7521ZM25.5751 32.5825C25.1395 33.0182 24.7038 33.4538 24.123 33.7442C23.5412 34.0347 22.8143 34.326 22.0882 34.326C21.363 34.326 20.636 34.1799 20.0534 33.7442C19.4725 33.4538 19.036 33.0173 18.6012 32.5825C17.9438 31.7561 17.5853 30.7316 17.5838 29.6756C17.5838 28.5129 18.0195 27.6408 18.6012 26.7695C19.0369 26.3329 19.4725 25.8973 20.0534 25.6069C20.6351 25.3164 21.3621 25.1703 22.0882 25.1703C22.8151 25.1703 23.3969 25.3156 24.123 25.6069C24.7038 25.8973 25.1404 26.3338 25.5751 26.7695C26.3021 27.4956 26.5925 28.5138 26.5925 29.6756C26.7377 30.8382 26.3021 31.8556 25.5751 32.5825Z" fill="#002923" stroke="#002923" stroke-width="0.3375"/>
</svg>
